:SAMPLES-PER-SECOND 30
:FULLY-SPECIFIED
:DEGREES
94
root  -3.11091 40.498 -4.45597 2.49509 -57.2114 1.74785
RightUpLeg  -2.03551 -1.84576 4.56066
RightLeg  -5.07938 -54.8549 8.18096
RightFoot  -4.50604 0.189274 -3.66584
RightToes  -3.10678e-008 1.75238e-005 3.56266e-009
Spine  8.94278 2.13461 -9.31536
Spine1  5.56843 -0.226565 8.75853
HEad  -3.58596 11.559 1.50295
LeftShoulder1  2.46204 -4.14399 -26.0614
LeftArm  -22.4913 -3.55026 -41.6539
LeftForeArm  127.237 -78.5064 -121.633
LeftHand  -0.604023 -3.95714 7.76822
RightShoulder  2.74898 5.1145 25.8631
RightArm  -15.9803 -11.17 38.9611
RightForeArm  80.3757 79.6169 86.0414
RightHand  -0.282181 7.99821 -2.81644
LeftUpLeg  -10.4273 -0.407954 5.42665
LeftLeg  -1.16777 -13.1032 1.59141
LeftFoot  5.60617 1.3325 -9.15946
LeftToes  4.7643e-008 1.47522e-008 1.32869e-009
95
root  -3.03032 40.4898 -4.52316 2.57861 -57.0983 1.66298
RightUpLeg  -2.18277 -1.7379 4.65069
RightLeg  -5.27312 -55.0919 8.32121
RightFoot  -4.45586 0.200307 -3.83305
RightToes  -3.10678e-008 1.75238e-005 3.56266e-009
Spine  9.60861 2.24698 -9.11565
Spine1  5.25904 -0.0603072 8.40348
HEad  -2.15162 12.0579 1.58054
LeftShoulder1  2.49955 -4.2812 -25.9728
LeftArm  -22.6519 -3.7602 -41.5257
LeftForeArm  127 -78.4929 -121.638
LeftHand  -0.614188 -4.12057 7.76433
RightShoulder  2.77649 5.17368 25.9669
RightArm  -15.9919 -11.6342 38.9512
RightForeArm  81.2417 79.6207 87.0072
RightHand  -0.365124 7.81617 -3.57293
LeftUpLeg  -10.5502 -0.383446 5.49461
LeftLeg  -1.34348 -13.1867 1.62925
LeftFoot  5.77177 1.37507 -9.35797
LeftToes  4.7643e-008 1.47522e-008 1.32869e-009
96
root  -2.96712 40.481 -4.56667 2.80316 -57.0719 1.65263
RightUpLeg  -2.58032 -1.69152 4.66168
RightLeg  -5.16148 -55.152 8.25056
RightFoot  -4.43833 0.200365 -3.82689
RightToes  -3.10678e-008 1.75238e-005 3.56266e-009
Spine  9.34823 2.21246 -9.21714
Spine1  5.8632 -0.127177 8.38985
HEad  -0.940333 12.3472 1.53133
LeftShoulder1  2.47952 -4.21202 -26.0017
LeftArm  -22.9012 -4.10411 -41.4489
LeftForeArm  127.093 -78.4936 -121.663
LeftHand  -0.557652 -3.90313 7.2335
RightShoulder  2.77419 5.12152 26.1412
RightArm  -15.7432 -11.2555 38.8523
RightForeArm  80.4948 79.6067 86.4293
RightHand  -0.299313 8.01921 -2.95897
LeftUpLeg  -10.9206 -0.414196 5.52089
LeftLeg  -1.34959 -13.1473 1.61582
LeftFoot  5.89882 1.40049 -9.4607
LeftToes  4.7643e-008 1.47522e-008 1.32869e-009
97
root  -2.91385 40.4746 -4.60134 2.83151 -57.3177 1.59851
RightUpLeg  -2.75868 -1.66268 4.68769
RightLeg  -4.79139 -54.9408 7.96689
RightFoot  -4.4644 0.202054 -3.84389
RightToes  -3.10678e-008 1.75238e-005 3.56266e-009
Spine  9.53624 2.27655 -9.15548
Spine1  5.99711 -0.0239746 8.1351
HEad  0.459406 12.267 1.79427
LeftShoulder1  2.44276 -4.13674 -25.83
LeftArm  -22.8698 -4.07048 -41.4232
LeftForeArm  127.396 -78.4795 -121.838
LeftHand  -0.581439 -4.06528 7.40938
RightShoulder  2.79098 5.15332 26.2199
RightArm  -15.5839 -11.1434 38.9873
RightForeArm  79.29 79.591 85.2265
RightHand  -0.345945 8.09817 -3.3476
LeftUpLeg  -10.9489 -0.329909 5.59223
LeftLeg  -1.35445 -12.9902 1.5704
LeftFoot  6.03114 1.37086 -9.19951
LeftToes  4.7643e-008 1.47522e-008 1.32869e-009
98
root  -2.8733 40.4718 -4.61375 2.73151 -57.7365 1.60985
RightUpLeg  -2.85338 -1.73803 4.63831
RightLeg  -4.21313 -54.4343 7.54203
RightFoot  -4.52423 0.194641 -3.71649
RightToes  -3.10678e-008 1.75238e-005 3.56266e-009
Spine  9.49337 2.35414 -9.20102
Spine1  6.38352 0.0708231 7.98552
HEad  1.64398 12.4997 1.67413
LeftShoulder1  2.37971 -3.96881 -25.6991
LeftArm  -22.84 -4.16119 -41.4718
LeftForeArm  126.591 -78.5553 -121.149
LeftHand  -0.569013 -3.84894 7.41525
RightShoulder  2.84403 5.27805 26.3716
RightArm  -15.5838 -11.1411 39.1606
RightForeArm  79.4618 79.6106 84.8319
RightHand  -0.338785 8.44575 -3.21699
LeftUpLeg  -10.8544 -0.298533 5.62477
LeftLeg  -1.29444 -12.6007 1.54166
LeftFoot  5.99162 1.35672 -9.12711
LeftToes  4.7643e-008 1.47522e-008 1.32869e-009
99
root  -2.84562 40.4787 -4.58629 2.70737 -58.1991 1.58794
RightUpLeg  -2.86078 -1.86926 4.53923
RightLeg  -3.97949 -53.8404 7.46195
RightFoot  -4.49493 0.203467 -3.83989
RightToes  -3.10678e-008 1.75238e-005 3.56266e-009
Spine  9.15147 2.35011 -9.27825
Spine1  6.86835 0.0766096 7.94133
HEad  2.65784 12.7456 1.25921
LeftShoulder1  2.37493 -3.93904 -25.763
LeftArm  -22.8748 -4.04483 -41.4672
LeftForeArm  126.582 -78.5973 -120.899
LeftHand  -0.598921 -3.79226 7.83468
RightShoulder  2.85995 5.31729 26.4104
RightArm  -15.2455 -10.88 39.1963
RightForeArm  78.4489 79.5952 83.7129
RightHand  -0.364092 8.34443 -3.44991
LeftUpLeg  -10.8097 -0.289942 5.63392
LeftLeg  -1.11196 -12.1667 1.51798
LeftFoot  5.8868 1.33949 -9.06554
LeftToes  4.7643e-008 1.47522e-008 1.32869e-009
100
root  -2.8443 40.4848 -4.53705 2.62419 -58.8727 1.53751
RightUpLeg  -2.72416 -1.97477 4.45099
RightLeg  -3.69633 -53.0604 7.3056
RightFoot  -4.4952 0.200606 -3.77832
RightToes  -3.10678e-008 1.75238e-005 3.56266e-009
Spine  8.62329 2.43995 -9.81878
Spine1  7.2962 0.00909823 8.62311
HEad  3.27081 12.9088 0.809357
LeftShoulder1  2.45089 -4.08192 -26.1835
LeftArm  -22.8417 -3.6975 -41.2499
LeftForeArm  127.089 -78.5729 -121.201
LeftHand  -0.607324 -4.01081 7.77106
RightShoulder  2.85578 5.38412 26.1062
RightArm  -14.8884 -10.8662 39.3863
RightForeArm  78.4568 79.6021 83.4591
RightHand  -0.336264 8.2441 -3.23308
LeftUpLeg  -10.621 -0.202459 5.68184
LeftLeg  -0.828736 -11.6039 1.44771
LeftFoot  5.57115 1.31381 -9.05269
LeftToes  4.7643e-008 1.47522e-008 1.32869e-009
